# xmcd
#
# Track frame offsets: 
#        150
#        8898
#        23831
#        42146
#        54154
#        67120
#        86839
#        92248
#        107912
#        119912
#        134012
#        147801
#        162959
#
# Disc length: 2338 seconds
#
# Revision: 0
# Processed by: cddbd v1.5.2PL0 Copyright (c) Steve Scherf et al.
# Submitted via: ExactAudioCopy v0.99pb5
#
DISCID=b909200d
DTITLE=Vastis - Toinen Tapa
DYEAR=2007
DGENRE=Hip-Hop
TTITLE0=Nyt kuuluu
TTITLE1=Kansantauti
TTITLE2=Ne sanoo et oon hullu (feat. Asteriks)
TTITLE3=Mä en oo sun kaveri (feat. Mäpi)
TTITLE4=Mä en pärjäis yksin
TTITLE5=Teen mun työni hyvin (feat. Kike)
TTITLE6=Toinen tapa
TTITLE7=Yli puolet (feat. Brädi)
TTITLE8=Nuoruus (feat. Asteriks)
TTITLE9=Aikaa
TTITLE10=Juomalaulu
TTITLE11=Halataan kun tavataan (feat. Suvi Gardemeister)
TTITLE12=Polttoaine
EXTD=
EXTT0=
EXTT1=
EXTT2=
EXTT3=
EXTT4=
EXTT5=
EXTT6=
EXTT7=
EXTT8=
EXTT9=
EXTT10=
EXTT11=
EXTT12=
PLAYORDER=
